<?xml version="1.0" standalone="no"?>
<!DOCTYPE svg PUBLIC "-//W3C//DTD SVG 20010904//EN"
 "http://www.w3.org/TR/2001/REC-SVG-20010904/DTD/svg10.dtd">
<svg version="1.0" xmlns="http://www.w3.org/2000/svg"
 width="966.000000pt" height="966.000000pt" viewBox="0 0 966.000000 966.000000"
 preserveAspectRatio="xMidYMid meet">
<metadata>
Created by potrace 1.11, written by Peter Selinger 2001-2013
</metadata>
<g transform="translate(0.000000,966.000000) scale(0.100000,-0.100000)"
fill="#000000" stroke="none">
<path d="M4549 9616 c-2 -2 -51 -7 -108 -11 -57 -3 -111 -8 -120 -10 -9 -1
-47 -6 -86 -10 -38 -4 -77 -9 -85 -10 -53 -9 -103 -17 -123 -20 -19 -2 -104
-18 -162 -29 -938 -188 -1801 -654 -2480 -1339 -178 -180 -465 -516 -465 -546
0 -5 -4 -11 -8 -13 -14 -5 -154 -214 -237 -352 -82 -137 -249 -456 -239 -456
4 0 1 -7 -7 -16 -30 -36 -203 -490 -235 -619 -2 -5 -17 -62 -34 -125 -38 -142
-87 -373 -105 -495 -3 -23 -7 -51 -10 -64 -2 -13 -7 -56 -11 -95 -3 -39 -8
-74 -10 -77 -25 -43 -24 -956 1 -999 1 -3 6 -37 9 -76 4 -39 8 -80 10 -90 2
-11 6 -40 10 -65 10 -71 15 -94 48 -254 16 -82 32 -153 35 -158 2 -4 7 -20 9
-35 3 -15 19 -74 36 -132 157 -542 415 -1069 737 -1503 173 -233 269 -345 476
-552 182 -183 275 -266 455 -408 125 -98 352 -252 520 -352 100 -59 439 -235
453 -235 3 0 38 -15 79 -34 223 -104 698 -254 953 -301 153 -28 308 -52 390
-61 33 -3 71 -8 85 -10 164 -27 780 -26 1015 1 216 25 333 44 500 80 34 7 199
45 215 50 474 130 887 303 1247 521 58 35 107 64 110 64 2 0 9 5 16 10 7 6 57
40 112 77 119 80 263 187 388 291 131 108 173 147 347 322 525 526 909 1152
1146 1870 58 177 132 461 149 575 2 11 12 74 24 140 45 264 56 418 56 765 0
269 -8 419 -30 585 -2 22 -7 61 -10 87 -3 25 -19 118 -36 205 -27 142 -36 182
-52 248 -7 28 -27 107 -31 126 -16 63 -96 316 -116 364 -4 11 -26 67 -48 125
-120 313 -294 642 -500 945 -41 61 -78 112 -81 115 -4 3 -14 17 -23 31 -19 30
-164 212 -242 304 -28 33 -127 136 -221 230 -157 158 -217 212 -335 310 -25
20 -54 44 -65 54 -212 178 -594 421 -900 570 -290 141 -671 282 -910 336 -5 2
-30 8 -55 15 -25 7 -52 13 -60 15 -8 2 -62 13 -120 25 -58 12 -114 24 -125 25
-79 11 -112 17 -125 20 -8 2 -42 7 -75 11 -33 3 -62 7 -65 9 -3 1 -43 6 -90
10 -47 4 -94 9 -105 12 -23 6 -680 14 -686 9z"/>
</g>
</svg>
