<?xml version="1.0" standalone="no"?>
<!DOCTYPE svg PUBLIC "-//W3C//DTD SVG 20010904//EN"
 "http://www.w3.org/TR/2001/REC-SVG-20010904/DTD/svg10.dtd">
<svg version="1.0" xmlns="http://www.w3.org/2000/svg"
 width="420.000000pt" height="420.000000pt" viewBox="0 0 420.000000 420.000000"
 preserveAspectRatio="xMidYMid meet">
<metadata>
Created by potrace 1.11, written by Peter Selinger 2001-2013
</metadata>
<g transform="translate(0.000000,420.000000) scale(0.100000,-0.100000)"
fill="#000000" stroke="none">
<path d="M0 2100 l0 -2100 2100 0 2100 0 0 2100 0 2100 -2100 0 -2100 0 0
-2100z m4140 0 l0 -2040 -2040 0 -2040 0 0 2040 0 2040 2040 0 2040 0 0 -2040z"/>
<path d="M120 2100 l0 -1980 1980 0 1980 0 0 1980 0 1980 -1980 0 -1980 0 0
-1980z m2180 475 l0 -255 255 0 255 0 0 -295 0 -295 290 0 290 0 0 290 0 290
298 0 c288 0 300 -1 317 -20 15 -16 17 -26 9 -48 l-9 -27 -258 -3 -257 -2 0
-290 0 -290 -390 0 -390 0 0 295 0 295 -255 0 -255 0 0 255 0 255 -265 0 -265
0 0 -680 0 -680 -277 2 -278 3 -3 513 -2 512 -185 0 -185 0 0 -335 0 -335
-272 2 -273 3 -9 27 c-8 22 -6 32 9 48 17 19 30 20 226 20 l209 0 2 333 3 332
290 0 290 0 3 -512 2 -513 175 0 175 0 0 680 0 680 365 0 365 0 0 -255z"/>
</g>
</svg>
